@startuml
[*]     -down->  READY   : put()
[*]     -down->  DELAYED : put('my_task_data',\n{ delay = delay })
READY   -down->  TAKEN   : take()
READY   -down->  DONE    : delete() /\nttl timeout
READY   -down->  BURIED  : bury()
TAKEN   -up->    READY   : release() /\nttr timeout
TAKEN   -left->  DELAYED : release\n(id, { delay = delay })
TAKEN   -down->  DONE    : ack() / delete()
TAKEN   -right-> BURIED  : bury()
BURIED  -down->  DONE    : delete() /\nttl timeout
BURIED  -up->    READY   : kick()
DELAYED -up->    READY   : timeout
DELAYED -down->  DONE    : delete()
DONE    -down->  [*]     : remove executed task
@enduml
